<svg width="102" height="101" viewBox="0 0 102 101" fill="none" xmlns="http://www.w3.org/2000/svg">
<g filter="url(#filter0_d_1_313)">
<ellipse cx="51" cy="46.1827" rx="27" ry="25.8395" fill="url(#paint0_linear_1_313)"/>
<path d="M51 74.0222C66.9325 74.0222 80 61.6399 80 46.1827C80 30.7255 66.9325 18.3433 51 18.3433C35.0675 18.3433 22 30.7255 22 46.1827C22 61.6399 35.0675 74.0222 51 74.0222Z" stroke="white" stroke-width="4"/>
</g>
<g clip-path="url(#clip0_1_313)">
<path d="M49.4414 41.6133L50.3086 40.7461C50.6758 40.3789 51.2695 40.3789 51.6328 40.7461L59.2266 48.3359C59.5937 48.7031 59.5937 49.2969 59.2266 49.6602L51.6367 57.25C51.2695 57.6172 50.6758 57.6172 50.3125 57.25L49.4453 56.3828C49.0742 56.0117 49.082 55.4063 49.4609 55.043L54.1641 50.5625L42.9375 50.5625C42.418 50.5625 42 50.1445 42 49.625L42 48.375C42 47.8555 42.418 47.4375 42.9375 47.4375L54.1641 47.4375L49.457 42.9531C49.0742 42.5898 49.0664 41.9844 49.4414 41.6133Z" fill="white"/>
</g>
<defs>
<filter id="filter0_d_1_313" x="0" y="0.343262" width="102" height="99.6787" filterUnits="userSpaceOnUse" color-interpolation-filters="sRGB">
<feFlood flood-opacity="0" result="BackgroundImageFix"/>
<feColorMatrix in="SourceAlpha" type="matrix" values="0 0 0 0 0 0 0 0 0 0 0 0 0 0 0 0 0 0 127 0" result="hardAlpha"/>
<feOffset dy="4"/>
<feGaussianBlur stdDeviation="10"/>
<feComposite in2="hardAlpha" operator="out"/>
<feColorMatrix type="matrix" values="0 0 0 0 0 0 0 0 0 0 0 0 0 0 0 0 0 0 0.1 0"/>
<feBlend mode="normal" in2="BackgroundImageFix" result="effect1_dropShadow_1_313"/>
<feBlend mode="normal" in="SourceGraphic" in2="effect1_dropShadow_1_313" result="shape"/>
</filter>
<linearGradient id="paint0_linear_1_313" x1="51" y1="20.3433" x2="51" y2="72.0222" gradientUnits="userSpaceOnUse">
<stop stop-color="#0467A4"/>
<stop offset="1" stop-color="#0E8AD7"/>
</linearGradient>
<clipPath id="clip0_1_313">
<rect width="17.5" height="20" fill="white" transform="translate(60.75 40.25) rotate(90)"/>
</clipPath>
</defs>
</svg>
