<svg width="74" height="74" viewBox="0 0 74 74" fill="none" xmlns="http://www.w3.org/2000/svg">
<g filter="url(#filter0_d_1_178)">
<circle cx="37" cy="33" r="15" fill="url(#paint0_linear_1_178)"/>
<circle cx="37" cy="33" r="16" stroke="white" stroke-width="2"/>
</g>
<g clip-path="url(#clip0_1_178)">
<path d="M36.1341 28.8962L36.6159 28.4145C36.8199 28.2105 37.1498 28.2105 37.3516 28.4145L41.5703 32.631C41.7743 32.835 41.7743 33.1649 41.5703 33.3667L37.3538 37.5833C37.1498 37.7873 36.8199 37.7873 36.6181 37.5833L36.1363 37.1015C35.9301 36.8954 35.9345 36.559 36.145 36.3572L38.7578 33.868L32.5209 33.868C32.2322 33.868 32 33.6358 32 33.3472L32 32.6528C32 32.3641 32.2322 32.1319 32.5209 32.1319L38.7578 32.1319L36.1428 29.6406C35.9301 29.4388 35.9258 29.1024 36.1341 28.8962Z" fill="white"/>
</g>
<defs>
<filter id="filter0_d_1_178" x="0" y="0" width="74" height="74" filterUnits="userSpaceOnUse" color-interpolation-filters="sRGB">
<feFlood flood-opacity="0" result="BackgroundImageFix"/>
<feColorMatrix in="SourceAlpha" type="matrix" values="0 0 0 0 0 0 0 0 0 0 0 0 0 0 0 0 0 0 127 0" result="hardAlpha"/>
<feOffset dy="4"/>
<feGaussianBlur stdDeviation="10"/>
<feComposite in2="hardAlpha" operator="out"/>
<feColorMatrix type="matrix" values="0 0 0 0 0 0 0 0 0 0 0 0 0 0 0 0 0 0 0.1 0"/>
<feBlend mode="normal" in2="BackgroundImageFix" result="effect1_dropShadow_1_178"/>
<feBlend mode="normal" in="SourceGraphic" in2="effect1_dropShadow_1_178" result="shape"/>
</filter>
<linearGradient id="paint0_linear_1_178" x1="37" y1="18" x2="37" y2="48" gradientUnits="userSpaceOnUse">
<stop stop-color="#0467A4"/>
<stop offset="1" stop-color="#0B92E6"/>
</linearGradient>
<clipPath id="clip0_1_178">
<rect width="9.72222" height="11.1111" fill="white" transform="translate(42.4167 28.1389) rotate(90)"/>
</clipPath>
</defs>
</svg>
