<svg width="102" height="101" viewBox="0 0 102 101" fill="none" xmlns="http://www.w3.org/2000/svg">
<g filter="url(#filter0_d_1_264)">
<ellipse cx="51" cy="46.3146" rx="27" ry="25.8395" fill="url(#paint0_linear_1_264)"/>
<path d="M51 74.154C66.9325 74.154 80 61.7718 80 46.3146C80 30.8573 66.9325 18.4751 51 18.4751C35.0675 18.4751 22 30.8573 22 46.3146C22 61.7718 35.0675 74.154 51 74.154Z" stroke="white" stroke-width="4"/>
</g>
<g clip-path="url(#clip0_1_264)">
<path d="M49.4414 40.6133L50.3086 39.7461C50.6758 39.3789 51.2695 39.3789 51.6328 39.7461L59.2266 47.3359C59.5937 47.7031 59.5937 48.2969 59.2266 48.6602L51.6367 56.25C51.2695 56.6172 50.6758 56.6172 50.3125 56.25L49.4453 55.3828C49.0742 55.0117 49.082 54.4063 49.4609 54.043L54.1641 49.5625L42.9375 49.5625C42.418 49.5625 42 49.1445 42 48.625L42 47.375C42 46.8555 42.418 46.4375 42.9375 46.4375L54.1641 46.4375L49.457 41.9531C49.0742 41.5898 49.0664 40.9844 49.4414 40.6133Z" fill="white"/>
</g>
<defs>
<filter id="filter0_d_1_264" x="0" y="0.475098" width="102" height="99.679" filterUnits="userSpaceOnUse" color-interpolation-filters="sRGB">
<feFlood flood-opacity="0" result="BackgroundImageFix"/>
<feColorMatrix in="SourceAlpha" type="matrix" values="0 0 0 0 0 0 0 0 0 0 0 0 0 0 0 0 0 0 127 0" result="hardAlpha"/>
<feOffset dy="4"/>
<feGaussianBlur stdDeviation="10"/>
<feComposite in2="hardAlpha" operator="out"/>
<feColorMatrix type="matrix" values="0 0 0 0 0 0 0 0 0 0 0 0 0 0 0 0 0 0 0.1 0"/>
<feBlend mode="normal" in2="BackgroundImageFix" result="effect1_dropShadow_1_264"/>
<feBlend mode="normal" in="SourceGraphic" in2="effect1_dropShadow_1_264" result="shape"/>
</filter>
<linearGradient id="paint0_linear_1_264" x1="51" y1="20.4751" x2="51" y2="72.154" gradientUnits="userSpaceOnUse">
<stop stop-color="#0467A4"/>
<stop offset="1" stop-color="#0E8AD7"/>
</linearGradient>
<clipPath id="clip0_1_264">
<rect width="17.5" height="20" fill="white" transform="translate(60.75 39.25) rotate(90)"/>
</clipPath>
</defs>
</svg>
