<svg width="327" height="354" viewBox="0 0 327 354" fill="none" xmlns="http://www.w3.org/2000/svg">
<g filter="url(#filter0_d_2_501)">
<path fill-rule="evenodd" clip-rule="evenodd" d="M40 83.76C40 64.9422 40 55.5334 43.6622 48.3459C46.8835 42.0237 52.0237 36.8835 58.3459 33.6622C65.5334 30 74.9422 30 93.76 30H233.24C252.058 30 261.467 30 268.654 33.6622C274.976 36.8835 280.116 42.0237 283.338 48.3459C287 55.5334 287 64.9422 287 83.76V250.24C287 269.058 287 278.467 283.338 285.654C280.116 291.976 274.976 297.116 268.654 300.338C261.467 304 252.058 304 233.24 304H93.76C74.9422 304 65.5334 304 58.3459 300.338C52.0237 297.116 46.8835 291.976 43.6622 285.654C40 278.467 40 269.058 40 250.24V83.76Z" fill="white"/>
</g>
<defs>
<filter id="filter0_d_2_501" x="0" y="0" width="327" height="354" filterUnits="userSpaceOnUse" color-interpolation-filters="sRGB">
<feFlood flood-opacity="0" result="BackgroundImageFix"/>
<feColorMatrix in="SourceAlpha" type="matrix" values="0 0 0 0 0 0 0 0 0 0 0 0 0 0 0 0 0 0 127 0" result="hardAlpha"/>
<feOffset dy="10"/>
<feGaussianBlur stdDeviation="20"/>
<feComposite in2="hardAlpha" operator="out"/>
<feColorMatrix type="matrix" values="0 0 0 0 0 0 0 0 0 0 0 0 0 0 0 0 0 0 0.05 0"/>
<feBlend mode="normal" in2="BackgroundImageFix" result="effect1_dropShadow_2_501"/>
<feBlend mode="normal" in="SourceGraphic" in2="effect1_dropShadow_2_501" result="shape"/>
</filter>
</defs>
</svg>
