<svg width="258" height="337" viewBox="0 0 258 337" fill="none" xmlns="http://www.w3.org/2000/svg">
<path fill-rule="evenodd" clip-rule="evenodd" d="M0 32C0 20.799 0 15.1984 2.17987 10.9202C4.09734 7.15695 7.15695 4.09734 10.9202 2.17987C15.1984 0 20.799 0 32 0H226C237.201 0 242.802 0 247.08 2.17987C250.843 4.09734 253.903 7.15695 255.82 10.9202C258 15.1984 258 20.799 258 32V304.235C258 315.436 258 321.036 255.82 325.315C253.903 329.078 250.843 332.138 247.08 334.055C242.802 336.235 237.201 336.235 226 336.235H32C20.799 336.235 15.1984 336.235 10.9202 334.055C7.15695 332.138 4.09734 329.078 2.17987 325.315C0 321.036 0 315.436 0 304.235V32Z" fill="#F8F8F8"/>
</svg>
