<svg width="363" height="394" viewBox="0 0 363 394" fill="none" xmlns="http://www.w3.org/2000/svg">
<g filter="url(#filter0_d_2_397)">
<path fill-rule="evenodd" clip-rule="evenodd" d="M40 83.76C40 64.9422 40 55.5334 43.6622 48.3459C46.8835 42.0237 52.0237 36.8835 58.3459 33.6622C65.5334 30 74.9422 30 93.76 30H269.24C288.058 30 297.467 30 304.654 33.6622C310.976 36.8835 316.116 42.0237 319.338 48.3459C323 55.5334 323 64.9422 323 83.76V290.24C323 309.058 323 318.467 319.338 325.654C316.116 331.976 310.976 337.116 304.654 340.338C297.467 344 288.058 344 269.24 344H93.76C74.9422 344 65.5334 344 58.3459 340.338C52.0237 337.116 46.8835 331.976 43.6622 325.654C40 318.467 40 309.058 40 290.24V83.76Z" fill="white"/>
</g>
<defs>
<filter id="filter0_d_2_397" x="0" y="0" width="363" height="394" filterUnits="userSpaceOnUse" color-interpolation-filters="sRGB">
<feFlood flood-opacity="0" result="BackgroundImageFix"/>
<feColorMatrix in="SourceAlpha" type="matrix" values="0 0 0 0 0 0 0 0 0 0 0 0 0 0 0 0 0 0 127 0" result="hardAlpha"/>
<feOffset dy="10"/>
<feGaussianBlur stdDeviation="20"/>
<feComposite in2="hardAlpha" operator="out"/>
<feColorMatrix type="matrix" values="0 0 0 0 0 0 0 0 0 0 0 0 0 0 0 0 0 0 0.05 0"/>
<feBlend mode="normal" in2="BackgroundImageFix" result="effect1_dropShadow_2_397"/>
<feBlend mode="normal" in="SourceGraphic" in2="effect1_dropShadow_2_397" result="shape"/>
</filter>
</defs>
</svg>
