<svg width="663" height="394" viewBox="0 0 663 394" fill="none" xmlns="http://www.w3.org/2000/svg">
<g filter="url(#filter0_d_1_105)">
<path fill-rule="evenodd" clip-rule="evenodd" d="M40 78C40 61.1984 40 52.7976 43.2698 46.3803C46.146 40.7354 50.7354 36.146 56.3803 33.2698C62.7976 30 71.1984 30 88 30H575C591.802 30 600.202 30 606.62 33.2698C612.265 36.146 616.854 40.7354 619.73 46.3803C623 52.7976 623 61.1984 623 78V296C623 312.802 623 321.202 619.73 327.62C616.854 333.265 612.265 337.854 606.62 340.73C600.202 344 591.802 344 575 344H88C71.1984 344 62.7976 344 56.3803 340.73C50.7354 337.854 46.146 333.265 43.2698 327.62C40 321.202 40 312.802 40 296V78Z" fill="white"/>
</g>
<defs>
<filter id="filter0_d_1_105" x="0" y="0" width="663" height="394" filterUnits="userSpaceOnUse" color-interpolation-filters="sRGB">
<feFlood flood-opacity="0" result="BackgroundImageFix"/>
<feColorMatrix in="SourceAlpha" type="matrix" values="0 0 0 0 0 0 0 0 0 0 0 0 0 0 0 0 0 0 127 0" result="hardAlpha"/>
<feOffset dy="10"/>
<feGaussianBlur stdDeviation="20"/>
<feComposite in2="hardAlpha" operator="out"/>
<feColorMatrix type="matrix" values="0 0 0 0 0 0 0 0 0 0 0 0 0 0 0 0 0 0 0.05 0"/>
<feBlend mode="normal" in2="BackgroundImageFix" result="effect1_dropShadow_1_105"/>
<feBlend mode="normal" in="SourceGraphic" in2="effect1_dropShadow_1_105" result="shape"/>
</filter>
</defs>
</svg>
