<svg width="663" height="540" viewBox="0 0 663 540" fill="none" xmlns="http://www.w3.org/2000/svg">
<g filter="url(#filter0_d_1_144)">
<path fill-rule="evenodd" clip-rule="evenodd" d="M40 78C40 61.1984 40 52.7976 43.2698 46.3803C46.146 40.7354 50.7354 36.146 56.3803 33.2698C62.7976 30 71.1984 30 88 30H575C591.802 30 600.202 30 606.62 33.2698C612.265 36.146 616.854 40.7354 619.73 46.3803C623 52.7976 623 61.1984 623 78V442C623 458.802 623 467.202 619.73 473.62C616.854 479.265 612.265 483.854 606.62 486.73C600.202 490 591.802 490 575 490H88C71.1984 490 62.7976 490 56.3803 486.73C50.7354 483.854 46.146 479.265 43.2698 473.62C40 467.202 40 458.802 40 442V78Z" fill="white"/>
</g>
<defs>
<filter id="filter0_d_1_144" x="0" y="0" width="663" height="540" filterUnits="userSpaceOnUse" color-interpolation-filters="sRGB">
<feFlood flood-opacity="0" result="BackgroundImageFix"/>
<feColorMatrix in="SourceAlpha" type="matrix" values="0 0 0 0 0 0 0 0 0 0 0 0 0 0 0 0 0 0 127 0" result="hardAlpha"/>
<feOffset dy="10"/>
<feGaussianBlur stdDeviation="20"/>
<feComposite in2="hardAlpha" operator="out"/>
<feColorMatrix type="matrix" values="0 0 0 0 0 0 0 0 0 0 0 0 0 0 0 0 0 0 0.05 0"/>
<feBlend mode="normal" in2="BackgroundImageFix" result="effect1_dropShadow_1_144"/>
<feBlend mode="normal" in="SourceGraphic" in2="effect1_dropShadow_1_144" result="shape"/>
</filter>
</defs>
</svg>
