<svg width="365" height="388" viewBox="0 0 365 388" fill="none" xmlns="http://www.w3.org/2000/svg">
<g filter="url(#filter0_d_2_517)">
<path fill-rule="evenodd" clip-rule="evenodd" d="M40.1514 83.76C40.1514 64.9422 40.1514 55.5334 43.8135 48.3459C47.0349 42.0237 52.175 36.8835 58.4973 33.6622C65.6847 30 75.0936 30 93.9114 30H270.279C289.097 30 298.506 30 305.694 33.6622C312.016 36.8835 317.156 42.0237 320.377 48.3459C324.039 55.5334 324.039 64.9422 324.039 83.76V284.24C324.039 303.058 324.039 312.467 320.377 319.654C317.156 325.976 312.016 331.116 305.694 334.338C298.506 338 289.097 338 270.279 338H93.9114C75.0936 338 65.6847 338 58.4973 334.338C52.175 331.116 47.0349 325.976 43.8135 319.654C40.1514 312.467 40.1514 303.058 40.1514 284.24V83.76Z" fill="#F9F9F9"/>
</g>
<defs>
<filter id="filter0_d_2_517" x="0.151367" y="0" width="363.888" height="388" filterUnits="userSpaceOnUse" color-interpolation-filters="sRGB">
<feFlood flood-opacity="0" result="BackgroundImageFix"/>
<feColorMatrix in="SourceAlpha" type="matrix" values="0 0 0 0 0 0 0 0 0 0 0 0 0 0 0 0 0 0 127 0" result="hardAlpha"/>
<feOffset dy="10"/>
<feGaussianBlur stdDeviation="20"/>
<feComposite in2="hardAlpha" operator="out"/>
<feColorMatrix type="matrix" values="0 0 0 0 0 0 0 0 0 0 0 0 0 0 0 0 0 0 0.05 0"/>
<feBlend mode="normal" in2="BackgroundImageFix" result="effect1_dropShadow_2_517"/>
<feBlend mode="normal" in="SourceGraphic" in2="effect1_dropShadow_2_517" result="shape"/>
</filter>
</defs>
</svg>
