<svg width="364" height="388" viewBox="0 0 364 388" fill="none" xmlns="http://www.w3.org/2000/svg">
<g filter="url(#filter0_d_2_323)">
<path fill-rule="evenodd" clip-rule="evenodd" d="M40.0394 83.76C40.0394 64.9422 40.0394 55.5334 43.7016 48.3459C46.923 42.0237 52.0631 36.8835 58.3853 33.6622C65.5728 30 74.9817 30 93.7994 30H270.167C288.985 30 298.394 30 305.582 33.6622C311.904 36.8835 317.044 42.0237 320.265 48.3459C323.927 55.5334 323.927 64.9422 323.927 83.76V284.24C323.927 303.058 323.927 312.467 320.265 319.654C317.044 325.976 311.904 331.116 305.582 334.338C298.394 338 288.985 338 270.167 338H93.7995C74.9817 338 65.5728 338 58.3853 334.338C52.0631 331.116 46.923 325.976 43.7016 319.654C40.0394 312.467 40.0394 303.058 40.0394 284.24V83.76Z" fill="white"/>
</g>
<defs>
<filter id="filter0_d_2_323" x="0.0394287" y="0" width="363.888" height="388" filterUnits="userSpaceOnUse" color-interpolation-filters="sRGB">
<feFlood flood-opacity="0" result="BackgroundImageFix"/>
<feColorMatrix in="SourceAlpha" type="matrix" values="0 0 0 0 0 0 0 0 0 0 0 0 0 0 0 0 0 0 127 0" result="hardAlpha"/>
<feOffset dy="10"/>
<feGaussianBlur stdDeviation="20"/>
<feComposite in2="hardAlpha" operator="out"/>
<feColorMatrix type="matrix" values="0 0 0 0 0 0 0 0 0 0 0 0 0 0 0 0 0 0 0.05 0"/>
<feBlend mode="normal" in2="BackgroundImageFix" result="effect1_dropShadow_2_323"/>
<feBlend mode="normal" in="SourceGraphic" in2="effect1_dropShadow_2_323" result="shape"/>
</filter>
</defs>
</svg>
