<svg width="257" height="337" viewBox="0 0 257 337" fill="none" xmlns="http://www.w3.org/2000/svg">
<path fill-rule="evenodd" clip-rule="evenodd" d="M0 32C0 20.799 0 15.1984 2.17987 10.9202C4.09734 7.15695 7.15695 4.09734 10.9202 2.17987C15.1984 0 20.799 0 32 0H225C236.201 0 241.802 0 246.08 2.17987C249.843 4.09734 252.903 7.15695 254.82 10.9202C257 15.1984 257 20.799 257 32V304.235C257 315.436 257 321.036 254.82 325.315C252.903 329.078 249.843 332.138 246.08 334.055C241.802 336.235 236.201 336.235 225 336.235H32C20.799 336.235 15.1984 336.235 10.9202 334.055C7.15695 332.138 4.09734 329.078 2.17987 325.315C0 321.036 0 315.436 0 304.235V32Z" fill="#F8F8F8"/>
</svg>
