<svg width="20" height="20" viewBox="0 0 20 20" fill="none" xmlns="http://www.w3.org/2000/svg">
<path d="M17 8H16.5L13.1006 3.75063C12.9132 3.51643 12.6755 3.32738 12.4052 3.19745C12.1348 3.06752 11.8387 3.00004 11.5387 3H4.85406C4.03625 3 3.30094 3.49781 2.99719 4.25719L1.5 8.07062C0.63875 8.29375 0 9.06906 0 10V13.5C0 13.7762 0.22375 14 0.5 14H2C2 15.6569 3.34312 17 5 17C6.65688 17 8 15.6569 8 14H12C12 15.6569 13.3431 17 15 17C16.6569 17 18 15.6569 18 14H19.5C19.7763 14 20 13.7762 20 13.5V11C20 9.34312 18.6569 8 17 8ZM5 15.5C4.17281 15.5 3.5 14.8272 3.5 14C3.5 13.1728 4.17281 12.5 5 12.5C5.82719 12.5 6.5 13.1728 6.5 14C6.5 14.8272 5.82719 15.5 5 15.5ZM7.25 8H3.65406L4.85406 5H7.25V8ZM8.75 8V5H11.5387L13.9388 8H8.75ZM15 15.5C14.1728 15.5 13.5 14.8272 13.5 14C13.5 13.1728 14.1728 12.5 15 12.5C15.8272 12.5 16.5 13.1728 16.5 14C16.5 14.8272 15.8272 15.5 15 15.5Z" fill="white"/>
</svg>
