<svg width="15" height="15" viewBox="0 0 15 15" fill="none" xmlns="http://www.w3.org/2000/svg">
<g clip-path="url(#clip0_2_46)">
<path d="M0.830383 1.07288L1.40975 2.9153M1.40975 2.9153L3.72723 10.285H14.349V4.75773C14.349 4.26909 14.1455 3.80046 13.7833 3.45494C13.4212 3.10942 12.93 2.9153 12.4178 2.9153H1.40975ZM12.4178 13.9699C12.1617 13.9699 11.9161 13.8728 11.735 13.7001C11.5539 13.5273 11.4521 13.293 11.4521 13.0487C11.4521 12.8043 11.5539 12.57 11.735 12.3973C11.9161 12.2245 12.1617 12.1274 12.4178 12.1274C12.6739 12.1274 12.9195 12.2245 13.1006 12.3973C13.2816 12.57 13.3834 12.8043 13.3834 13.0487C13.3834 13.293 13.2816 13.5273 13.1006 13.7001C12.9195 13.8728 12.6739 13.9699 12.4178 13.9699ZM4.69284 13.0487C4.69284 12.8043 4.79458 12.57 4.97566 12.3973C5.15675 12.2245 5.40236 12.1274 5.65846 12.1274C5.91455 12.1274 6.16016 12.2245 6.34125 12.3973C6.52234 12.57 6.62407 12.8043 6.62407 13.0487C6.62407 13.293 6.52234 13.5273 6.34125 13.7001C6.16016 13.8728 5.91455 13.9699 5.65846 13.9699C5.40236 13.9699 5.15675 13.8728 4.97566 13.7001C4.79458 13.5273 4.69284 13.293 4.69284 13.0487Z" stroke="white" stroke-width="1.06667"/>
</g>
<defs>
<clipPath id="clip0_2_46">
<rect width="14.4842" height="13.8182" fill="white" transform="translate(0.347351 0.612183)"/>
</clipPath>
</defs>
</svg>
