<svg width="16" height="15" viewBox="0 0 16 15" fill="none" xmlns="http://www.w3.org/2000/svg">
<g clip-path="url(#clip0_1_198)">
<path d="M1.06363 1.07288L1.64075 2.9153M1.64075 2.9153L3.94924 10.285H14.5298V4.75772C14.5298 4.26908 14.3271 3.80046 13.9664 3.45493C13.6056 3.10941 13.1163 2.9153 12.6061 2.9153H1.64075ZM12.6061 13.9698C12.351 13.9698 12.1063 13.8728 11.9259 13.7C11.7456 13.5273 11.6442 13.293 11.6442 13.0486C11.6442 12.8043 11.7456 12.57 11.9259 12.3972C12.1063 12.2245 12.351 12.1274 12.6061 12.1274C12.8612 12.1274 13.1058 12.2245 13.2862 12.3972C13.4666 12.57 13.568 12.8043 13.568 13.0486C13.568 13.293 13.4666 13.5273 13.2862 13.7C13.1058 13.8728 12.8612 13.9698 12.6061 13.9698ZM4.91111 13.0486C4.91111 12.8043 5.01245 12.57 5.19284 12.3972C5.37323 12.2245 5.61788 12.1274 5.87299 12.1274C6.12809 12.1274 6.37275 12.2245 6.55313 12.3972C6.73352 12.57 6.83486 12.8043 6.83486 13.0486C6.83486 13.293 6.73352 13.5273 6.55313 13.7C6.37275 13.8728 6.12809 13.9698 5.87299 13.9698C5.61788 13.9698 5.37323 13.8728 5.19284 13.7C5.01245 13.5273 4.91111 13.293 4.91111 13.0486Z" stroke="white" stroke-width="1.06667"/>
</g>
<defs>
<clipPath id="clip0_1_198">
<rect width="14.4281" height="13.8182" fill="white" transform="translate(0.582458 0.612183)"/>
</clipPath>
</defs>
</svg>
