<svg width="16" height="15" viewBox="0 0 16 15" fill="none" xmlns="http://www.w3.org/2000/svg">
<g clip-path="url(#clip0_1_114)">
<path d="M0.5336 0.550659L1.1736 2.48495M1.1736 2.48495L3.7336 10.2221H15.4669V4.41924C15.4669 3.90623 15.2422 3.41424 14.8421 3.05149C14.442 2.68874 13.8994 2.48495 13.3336 2.48495H1.1736ZM13.3336 14.0907C13.0507 14.0907 12.7794 13.9888 12.5794 13.8074C12.3793 13.626 12.2669 13.38 12.2669 13.1235C12.2669 12.867 12.3793 12.621 12.5794 12.4397C12.7794 12.2583 13.0507 12.1564 13.3336 12.1564C13.6165 12.1564 13.8878 12.2583 14.0878 12.4397C14.2879 12.621 14.4003 12.867 14.4003 13.1235C14.4003 13.38 14.2879 13.626 14.0878 13.8074C13.8878 13.9888 13.6165 14.0907 13.3336 14.0907ZM4.80027 13.1235C4.80027 12.867 4.91265 12.621 5.11269 12.4397C5.31272 12.2583 5.58404 12.1564 5.86693 12.1564C6.14983 12.1564 6.42114 12.2583 6.62118 12.4397C6.82122 12.621 6.9336 12.867 6.9336 13.1235C6.9336 13.38 6.82122 13.626 6.62118 13.8074C6.42114 13.9888 6.14983 14.0907 5.86693 14.0907C5.58404 14.0907 5.31272 13.9888 5.11269 13.8074C4.91265 13.626 4.80027 13.38 4.80027 13.1235Z" stroke="white" stroke-width="1.06667"/>
</g>
<defs>
<clipPath id="clip0_1_114">
<rect width="16" height="14.5072" fill="white" transform="translate(0 0.0670166)"/>
</clipPath>
</defs>
</svg>
