<svg width="18" height="18" viewBox="0 0 18 18" fill="none" xmlns="http://www.w3.org/2000/svg">
<g clip-path="url(#clip0_1_125)">
<path d="M9 1C7.41775 1 5.87103 1.46919 4.55544 2.34824C3.23985 3.22729 2.21447 4.47672 1.60897 5.93853C1.00347 7.40034 0.84504 9.00887 1.15372 10.5607C1.4624 12.1126 2.22433 13.538 3.34315 14.6569C4.46197 15.7757 5.88743 16.5376 7.43928 16.8463C8.99113 17.155 10.5997 16.9965 12.0615 16.391C13.5233 15.7855 14.7727 14.7602 15.6518 13.4446C16.5308 12.129 17 10.5823 17 9C17 6.87827 16.1571 4.84344 14.6569 3.34315C13.1566 1.84285 11.1217 1 9 1ZM9 16C7.61553 16 6.26216 15.5895 5.11101 14.8203C3.95987 14.0511 3.06266 12.9579 2.53285 11.6788C2.00303 10.3997 1.86441 8.99224 2.13451 7.63437C2.4046 6.2765 3.07129 5.02922 4.05026 4.05025C5.02922 3.07128 6.2765 2.4046 7.63437 2.1345C8.99224 1.86441 10.3997 2.00303 11.6788 2.53284C12.9579 3.06266 14.0511 3.95986 14.8203 5.11101C15.5895 6.26215 16 7.61553 16 9C16 10.8565 15.2625 12.637 13.9498 13.9497C12.637 15.2625 10.8565 16 9 16Z" fill="white"/>
<path d="M9.45999 9.2V5.375C9.45999 5.24239 9.40731 5.11521 9.31355 5.02145C9.21978 4.92768 9.0926 4.875 8.95999 4.875C8.82738 4.875 8.70021 4.92768 8.60644 5.02145C8.51267 5.11521 8.45999 5.24239 8.45999 5.375V9.735L11.41 11.735C11.4643 11.7759 11.5264 11.8052 11.5925 11.8213C11.6586 11.8373 11.7272 11.8397 11.7943 11.8284C11.8613 11.817 11.9253 11.792 11.9824 11.7551C12.0395 11.7181 12.0884 11.6699 12.1262 11.6133C12.164 11.5568 12.1898 11.4932 12.2022 11.4263C12.2146 11.3595 12.2132 11.2908 12.1981 11.2245C12.183 11.1582 12.1545 11.0956 12.1145 11.0407C12.0744 10.9858 12.0235 10.9396 11.965 10.905L9.45999 9.2Z" fill="white"/>
<path d="M4.00001 8.97006C3.99544 8.07058 4.23506 7.18672 4.69333 6.41272C5.15159 5.63871 5.81133 5.00359 6.60218 4.57506C7.39303 4.14653 8.28536 3.94066 9.18402 3.97941C10.0827 4.01815 10.954 4.30005 11.705 4.79506L12.13 4.11506C11.4166 3.64776 10.6086 3.34426 9.76398 3.22635C8.91936 3.10845 8.05911 3.17908 7.24503 3.43316C6.43095 3.68724 5.68324 4.11846 5.05563 4.69586C4.42801 5.27325 3.93607 5.98248 3.61513 6.77259C3.29419 7.56271 3.15223 8.4141 3.19944 9.2656C3.24665 10.1171 3.48186 10.9476 3.88818 11.6974C4.2945 12.4472 4.86184 13.0977 5.54944 13.6021C6.23704 14.1066 7.02783 14.4525 7.86501 14.6151L8.00001 13.8501C6.874 13.6202 5.86154 13.0095 5.13301 12.1207C4.40449 11.2319 4.00437 10.1193 4.00001 8.97006Z" fill="white"/>
</g>
<defs>
<clipPath id="clip0_1_125">
<rect width="18" height="18" fill="white"/>
</clipPath>
</defs>
</svg>
