<svg width="277" height="77" viewBox="0 0 277 77" fill="none" xmlns="http://www.w3.org/2000/svg">
<g filter="url(#filter0_d_2_42)">
<path fill-rule="evenodd" clip-rule="evenodd" d="M9 33.9991C9 26.0159 9 22.0243 10.1233 18.8156C12.1337 13.0729 16.6489 8.55767 22.3916 6.54726C25.6003 5.42395 29.592 5.42395 37.5752 5.42395H239.33C247.313 5.42395 251.305 5.42395 254.514 6.54726C260.256 8.55767 264.772 13.0729 266.782 18.8156C267.905 22.0243 267.905 26.0159 267.905 33.9991C267.905 41.9824 267.905 45.974 266.782 49.1827C264.772 54.9254 260.256 59.4406 254.514 61.451C251.305 62.5743 247.313 62.5743 239.33 62.5743H37.5752C29.592 62.5743 25.6003 62.5743 22.3916 61.451C16.6489 59.4406 12.1337 54.9254 10.1233 49.1827C9 45.974 9 41.9824 9 33.9991Z" fill="white"/>
</g>
<defs>
<filter id="filter0_d_2_42" x="0.04" y="0.94395" width="276.825" height="75.0704" filterUnits="userSpaceOnUse" color-interpolation-filters="sRGB">
<feFlood flood-opacity="0" result="BackgroundImageFix"/>
<feColorMatrix in="SourceAlpha" type="matrix" values="0 0 0 0 0 0 0 0 0 0 0 0 0 0 0 0 0 0 127 0" result="hardAlpha"/>
<feOffset dy="4.48"/>
<feGaussianBlur stdDeviation="4.48"/>
<feColorMatrix type="matrix" values="0 0 0 0 0.253847 0 0 0 0 0.392531 0 0 0 0 0.558952 0 0 0 0.12 0"/>
<feBlend mode="normal" in2="BackgroundImageFix" result="effect1_dropShadow_2_42"/>
<feBlend mode="normal" in="SourceGraphic" in2="effect1_dropShadow_2_42" result="shape"/>
</filter>
</defs>
</svg>
