<svg width="276" height="77" viewBox="0 0 276 77" fill="none" xmlns="http://www.w3.org/2000/svg">
<g filter="url(#filter0_d_1_194)">
<path fill-rule="evenodd" clip-rule="evenodd" d="M9 33.9991C9 26.0159 9 22.0243 10.1233 18.8156C12.1337 13.0729 16.6489 8.55767 22.3916 6.54726C25.6003 5.42395 29.592 5.42395 37.5752 5.42395H238.327C246.31 5.42395 250.301 5.42395 253.51 6.54726C259.253 8.55767 263.768 13.0729 265.778 18.8156C266.902 22.0243 266.902 26.0159 266.902 33.9991C266.902 41.9824 266.902 45.974 265.778 49.1827C263.768 54.9254 259.253 59.4406 253.51 61.451C250.301 62.5743 246.31 62.5743 238.327 62.5743H37.5752C29.592 62.5743 25.6003 62.5743 22.3916 61.451C16.6489 59.4406 12.1337 54.9254 10.1233 49.1827C9 45.974 9 41.9824 9 33.9991Z" fill="white"/>
</g>
<defs>
<filter id="filter0_d_1_194" x="0.04" y="0.94395" width="275.822" height="75.0704" filterUnits="userSpaceOnUse" color-interpolation-filters="sRGB">
<feFlood flood-opacity="0" result="BackgroundImageFix"/>
<feColorMatrix in="SourceAlpha" type="matrix" values="0 0 0 0 0 0 0 0 0 0 0 0 0 0 0 0 0 0 127 0" result="hardAlpha"/>
<feOffset dy="4.48"/>
<feGaussianBlur stdDeviation="4.48"/>
<feColorMatrix type="matrix" values="0 0 0 0 0.253847 0 0 0 0 0.392531 0 0 0 0 0.558952 0 0 0 0.12 0"/>
<feBlend mode="normal" in2="BackgroundImageFix" result="effect1_dropShadow_1_194"/>
<feBlend mode="normal" in="SourceGraphic" in2="effect1_dropShadow_1_194" result="shape"/>
</filter>
</defs>
</svg>
