<svg width="23" height="24" viewBox="0 0 23 24" fill="none" xmlns="http://www.w3.org/2000/svg">
<path d="M15.5287 3.75391C13.783 3.75391 12.2545 4.54687 11.3017 5.88722C10.349 4.54687 8.82052 3.75391 7.07478 3.75391C5.68514 3.75556 4.35287 4.33939 3.37024 5.37732C2.38762 6.41525 1.83489 7.8225 1.83333 9.29035C1.83333 15.5412 10.6077 20.6008 10.9813 20.8097C11.0798 20.8657 11.1899 20.895 11.3017 20.895C11.4136 20.895 11.5237 20.8657 11.6222 20.8097C11.9958 20.6008 20.7702 15.5412 20.7702 9.29035C20.7686 7.8225 20.2159 6.41525 19.2333 5.37732C18.2506 4.33939 16.9184 3.75556 15.5287 3.75391ZM11.3017 19.3631C9.75806 18.413 3.18596 14.0847 3.18596 9.29035C3.1873 8.20136 3.59745 7.15738 4.32645 6.38735C5.05545 5.61731 6.04381 5.18408 7.07478 5.18267C8.71907 5.18267 10.0996 6.10779 10.6762 7.5937C10.7271 7.72472 10.8138 7.83679 10.9252 7.91566C11.0366 7.99453 11.1676 8.03664 11.3017 8.03664C11.4359 8.03664 11.5669 7.99453 11.6783 7.91566C11.7897 7.83679 11.8764 7.72472 11.9273 7.5937C12.5039 6.10511 13.8844 5.18267 15.5287 5.18267C16.5597 5.18408 17.548 5.61731 18.2771 6.38735C19.0061 7.15738 19.4162 8.20136 19.4175 9.29035C19.4175 14.0776 12.8437 18.4121 11.3017 19.3631Z" fill="url(#paint0_linear_1_204)"/>
<defs>
<linearGradient id="paint0_linear_1_204" x1="11.3017" y1="3.75391" x2="11.3017" y2="20.895" gradientUnits="userSpaceOnUse">
<stop stop-color="#0467A4"/>
<stop offset="1" stop-color="#0B92E6"/>
</linearGradient>
</defs>
</svg>
