<svg width="23" height="24" viewBox="0 0 23 24" fill="none" xmlns="http://www.w3.org/2000/svg">
<path d="M15.7487 3.75403C13.9961 3.75403 12.4617 4.54699 11.5052 5.88734C10.5488 4.54699 9.01434 3.75403 7.26181 3.75403C5.86677 3.75568 4.52931 4.33952 3.54286 5.37744C2.55642 6.41537 2.00154 7.82262 1.99997 9.29047C1.99997 15.5413 10.8085 20.6009 11.1836 20.8098C11.2824 20.8658 11.393 20.8951 11.5052 20.8951C11.6175 20.8951 11.728 20.8658 11.8269 20.8098C12.202 20.6009 21.0105 15.5413 21.0105 9.29047C21.0089 7.82262 20.454 6.41537 19.4676 5.37744C18.4812 4.33952 17.1437 3.75568 15.7487 3.75403ZM11.5052 19.3632C9.95553 18.4131 3.35786 14.0848 3.35786 9.29047C3.35921 8.20148 3.77095 7.1575 4.50279 6.38747C5.23463 5.61743 6.22683 5.1842 7.26181 5.18279C8.9125 5.18279 10.2984 6.10791 10.8772 7.59382C10.9284 7.72484 11.0154 7.83691 11.1272 7.91578C11.239 7.99465 11.3706 8.03676 11.5052 8.03676C11.6399 8.03676 11.7714 7.99465 11.8833 7.91578C11.9951 7.83691 12.0821 7.72484 12.1333 7.59382C12.7121 6.10523 14.098 5.18279 15.7487 5.18279C16.7836 5.1842 17.7758 5.61743 18.5077 6.38747C19.2395 7.1575 19.6513 8.20148 19.6526 9.29047C19.6526 14.0777 13.0532 18.4122 11.5052 19.3632Z" fill="url(#paint0_linear_2_52)"/>
<defs>
<linearGradient id="paint0_linear_2_52" x1="11.5052" y1="3.75403" x2="11.5052" y2="20.8951" gradientUnits="userSpaceOnUse">
<stop stop-color="#0467A4"/>
<stop offset="1" stop-color="#0B92E6"/>
</linearGradient>
</defs>
</svg>
