<svg width="15" height="15" viewBox="0 0 15 15" fill="none" xmlns="http://www.w3.org/2000/svg">
<g clip-path="url(#clip0_1_46)">
<path d="M14.572 10.5998L11.2907 9.19353C11.1505 9.1338 10.9948 9.12121 10.8468 9.15767C10.6989 9.19413 10.5668 9.27766 10.4704 9.39568L9.01728 11.1711C6.73674 10.0958 4.90143 8.26051 3.82617 5.97996L5.60156 4.52684C5.71983 4.43065 5.80353 4.29855 5.84001 4.15053C5.87648 4.00252 5.86374 3.84665 5.80371 3.70652L4.39746 0.425274C4.33158 0.274222 4.21505 0.150893 4.06797 0.0765534C3.9209 0.00221354 3.75249 -0.0184776 3.5918 0.0180479L0.544922 0.721173C0.389991 0.75695 0.251761 0.844184 0.152793 0.968639C0.0538257 1.09309 -3.56897e-05 1.24742 1.77428e-08 1.40643C1.77428e-08 8.92107 6.09082 15.0002 13.5937 15.0002C13.7528 15.0003 13.9072 14.9464 14.0317 14.8475C14.1562 14.7485 14.2435 14.6102 14.2793 14.4553L14.9824 11.4084C15.0187 11.2469 14.9976 11.0778 14.9227 10.9302C14.8478 10.7827 14.7237 10.6658 14.572 10.5998Z" fill="white"/>
</g>
<defs>
<clipPath id="clip0_1_46">
<rect width="15" height="15" fill="white"/>
</clipPath>
</defs>
</svg>
