<svg width="17" height="17" viewBox="0 0 17 17" fill="none" xmlns="http://www.w3.org/2000/svg">
<g clip-path="url(#clip0_1_218)">
<path fill-rule="evenodd" clip-rule="evenodd" d="M7.74794 1.59131L5.68594 6.03381L0.755937 6.66881C0.660914 6.6809 0.571363 6.72003 0.497937 6.78154C0.42451 6.84306 0.370299 6.92437 0.341752 7.01581C0.313204 7.10724 0.311523 7.20495 0.336906 7.29732C0.36229 7.38968 0.413671 7.47281 0.484937 7.53681L4.13144 10.8193L3.14894 15.7453C3.13003 15.8397 3.13878 15.9376 3.17414 16.0271C3.2095 16.1167 3.26996 16.1941 3.34827 16.2502C3.42657 16.3062 3.51939 16.3384 3.61557 16.343C3.71175 16.3475 3.80719 16.3242 3.89044 16.2758L8.20094 13.7773L12.5134 16.2758C12.5966 16.324 12.692 16.3472 12.788 16.3426C12.884 16.3379 12.9767 16.3057 13.0549 16.2498C13.1331 16.1939 13.1935 16.1166 13.2289 16.0272C13.2643 15.9378 13.2731 15.8401 13.2544 15.7458L12.2719 10.8193L15.9184 7.53681C15.9895 7.47281 16.0408 7.38976 16.0661 7.29751C16.0914 7.20526 16.0897 7.10768 16.0613 7.01636C16.0328 6.92503 15.9787 6.8438 15.9054 6.78228C15.8322 6.72077 15.7428 6.68156 15.6479 6.66931L10.7179 6.03381L8.65444 1.59131C8.6143 1.50486 8.55028 1.43168 8.46993 1.3804C8.38958 1.32912 8.29625 1.30188 8.20094 1.30188C8.10562 1.30188 8.01229 1.32912 7.93194 1.3804C7.85159 1.43168 7.78758 1.50486 7.74744 1.59131H7.74794Z" fill="#FBB70A"/>
</g>
<defs>
<clipPath id="clip0_1_218">
<rect width="16" height="16" fill="white" transform="translate(0.201294 0.802002)"/>
</clipPath>
</defs>
</svg>
