<svg width="17" height="17" viewBox="0 0 17 17" fill="none" xmlns="http://www.w3.org/2000/svg">
<g clip-path="url(#clip0_1_212)">
<path fill-rule="evenodd" clip-rule="evenodd" d="M7.94601 1.59131L5.88401 6.03381L0.954012 6.66881C0.858989 6.6809 0.769438 6.72003 0.696011 6.78154C0.622585 6.84306 0.568373 6.92437 0.539826 7.01581C0.511279 7.10724 0.509597 7.20495 0.534981 7.29732C0.560365 7.38968 0.611746 7.47281 0.683012 7.53681L4.32951 10.8193L3.34701 15.7453C3.3281 15.8397 3.33685 15.9376 3.37221 16.0271C3.40757 16.1167 3.46804 16.1941 3.54634 16.2502C3.62465 16.3062 3.71747 16.3384 3.81364 16.343C3.90982 16.3475 4.00526 16.3242 4.08851 16.2758L8.39901 13.7773L12.7115 16.2758C12.7947 16.324 12.89 16.3472 12.9861 16.3426C13.0821 16.3379 13.1748 16.3057 13.253 16.2498C13.3311 16.1939 13.3916 16.1166 13.427 16.0272C13.4623 15.9378 13.4712 15.8401 13.4525 15.7458L12.47 10.8193L16.1165 7.53681C16.1876 7.47281 16.2389 7.38976 16.2642 7.29751C16.2895 7.20526 16.2878 7.10768 16.2593 7.01636C16.2308 6.92503 16.1768 6.8438 16.1035 6.78228C16.0303 6.72077 15.9409 6.68156 15.846 6.66931L10.916 6.03381L8.85251 1.59131C8.81237 1.50486 8.74835 1.43168 8.66801 1.3804C8.58766 1.32912 8.49433 1.30188 8.39901 1.30188C8.30369 1.30188 8.21036 1.32912 8.13002 1.3804C8.04967 1.43168 7.98565 1.50486 7.94551 1.59131H7.94601Z" fill="#FBB70A"/>
</g>
<defs>
<clipPath id="clip0_1_212">
<rect width="16" height="16" fill="white" transform="translate(0.399368 0.802002)"/>
</clipPath>
</defs>
</svg>
