<svg width="17" height="17" viewBox="0 0 17 17" fill="none" xmlns="http://www.w3.org/2000/svg">
<g clip-path="url(#clip0_1_216)">
<path fill-rule="evenodd" clip-rule="evenodd" d="M8.14729 1.59131L6.08529 6.03381L1.15529 6.66881C1.06027 6.6809 0.970716 6.72003 0.89729 6.78154C0.823863 6.84306 0.769652 6.92437 0.741105 7.01581C0.712557 7.10724 0.710876 7.20495 0.736259 7.29732C0.761643 7.38968 0.813024 7.47281 0.88429 7.53681L4.53079 10.8193L3.54829 15.7453C3.52938 15.8397 3.53813 15.9376 3.57349 16.0271C3.60885 16.1167 3.66931 16.1941 3.74762 16.2502C3.82593 16.3062 3.91875 16.3384 4.01492 16.343C4.1111 16.3475 4.20654 16.3242 4.28979 16.2758L8.60029 13.7773L12.9128 16.2758C12.996 16.324 13.0913 16.3472 13.1873 16.3426C13.2834 16.3379 13.376 16.3057 13.4542 16.2498C13.5324 16.1939 13.5928 16.1166 13.6282 16.0272C13.6636 15.9378 13.6725 15.8401 13.6538 15.7458L12.6713 10.8193L16.3178 7.53681C16.3889 7.47281 16.4401 7.38976 16.4654 7.29751C16.4908 7.20526 16.4891 7.10768 16.4606 7.01636C16.4321 6.92503 16.3781 6.8438 16.3048 6.78228C16.2315 6.72077 16.1422 6.68156 16.0473 6.66931L11.1173 6.03381L9.05379 1.59131C9.01365 1.50486 8.94963 1.43168 8.86928 1.3804C8.78894 1.32912 8.69561 1.30188 8.60029 1.30188C8.50497 1.30188 8.41164 1.32912 8.33129 1.3804C8.25095 1.43168 8.18693 1.50486 8.14679 1.59131H8.14729Z" fill="#FBB70A"/>
</g>
<defs>
<clipPath id="clip0_1_216">
<rect width="16" height="16" fill="white" transform="translate(0.600647 0.802002)"/>
</clipPath>
</defs>
</svg>
