<svg width="17" height="17" viewBox="0 0 17 17" fill="none" xmlns="http://www.w3.org/2000/svg">
<g clip-path="url(#clip0_1_210)">
<path fill-rule="evenodd" clip-rule="evenodd" d="M8.34536 1.59131L6.28336 6.03381L1.35336 6.66881C1.25834 6.6809 1.16879 6.72003 1.09536 6.78154C1.02194 6.84306 0.967726 6.92437 0.939179 7.01581C0.910632 7.10724 0.90895 7.20495 0.934334 7.29732C0.959718 7.38968 1.0111 7.47281 1.08236 7.53681L4.72886 10.8193L3.74636 15.7453C3.72745 15.8397 3.7362 15.9376 3.77156 16.0271C3.80692 16.1167 3.86739 16.1941 3.9457 16.2502C4.024 16.3062 4.11682 16.3384 4.213 16.343C4.30917 16.3475 4.40462 16.3242 4.48786 16.2758L8.79836 13.7773L13.1109 16.2758C13.1941 16.324 13.2894 16.3472 13.3854 16.3426C13.4814 16.3379 13.5741 16.3057 13.6523 16.2498C13.7305 16.1939 13.7909 16.1166 13.8263 16.0272C13.8617 15.9378 13.8706 15.8401 13.8519 15.7458L12.8694 10.8193L16.5159 7.53681C16.587 7.47281 16.6382 7.38976 16.6635 7.29751C16.6888 7.20526 16.6872 7.10768 16.6587 7.01636C16.6302 6.92503 16.5761 6.8438 16.5029 6.78228C16.4296 6.72077 16.3402 6.68156 16.2454 6.66931L11.3154 6.03381L9.25186 1.59131C9.21172 1.50486 9.14771 1.43168 9.06736 1.3804C8.98701 1.32912 8.89368 1.30188 8.79836 1.30188C8.70305 1.30188 8.60972 1.32912 8.52937 1.3804C8.44902 1.43168 8.38501 1.50486 8.34486 1.59131H8.34536Z" fill="#FBB70A"/>
</g>
<defs>
<clipPath id="clip0_1_210">
<rect width="16" height="16" fill="white" transform="translate(0.798721 0.802002)"/>
</clipPath>
</defs>
</svg>
