<svg width="16" height="17" viewBox="0 0 16 17" fill="none" xmlns="http://www.w3.org/2000/svg">
<g clip-path="url(#clip0_1_214)">
<path fill-rule="evenodd" clip-rule="evenodd" d="M7.54664 1.59131L5.48464 6.03381L0.554643 6.66881C0.45962 6.6809 0.370069 6.72003 0.296643 6.78154C0.223216 6.84306 0.169005 6.92437 0.140458 7.01581C0.11191 7.10724 0.110229 7.20495 0.135612 7.29732C0.160996 7.38968 0.212377 7.47281 0.283643 7.53681L3.93014 10.8193L2.94764 15.7453C2.92873 15.8397 2.93748 15.9376 2.97284 16.0271C3.0082 16.1167 3.06867 16.1941 3.14697 16.2502C3.22528 16.3062 3.3181 16.3384 3.41427 16.343C3.51045 16.3475 3.6059 16.3242 3.68914 16.2758L7.99964 13.7773L12.3121 16.2758C12.3953 16.324 12.4907 16.3472 12.5867 16.3426C12.6827 16.3379 12.7754 16.3057 12.8536 16.2498C12.9318 16.1939 12.9922 16.1166 13.0276 16.0272C13.063 15.9378 13.0719 15.8401 13.0531 15.7458L12.0706 10.8193L15.7171 7.53681C15.7882 7.47281 15.8395 7.38976 15.8648 7.29751C15.8901 7.20526 15.8884 7.10768 15.86 7.01636C15.8315 6.92503 15.7774 6.8438 15.7041 6.78228C15.6309 6.72077 15.5415 6.68156 15.4466 6.66931L10.5166 6.03381L8.45314 1.59131C8.413 1.50486 8.34899 1.43168 8.26864 1.3804C8.18829 1.32912 8.09496 1.30188 7.99964 1.30188C7.90433 1.30188 7.81099 1.32912 7.73065 1.3804C7.6503 1.43168 7.58628 1.50486 7.54614 1.59131H7.54664Z" fill="#FBB70A"/>
</g>
<defs>
<clipPath id="clip0_1_214">
<rect width="16" height="16" fill="white" transform="translate(0 0.802002)"/>
</clipPath>
</defs>
</svg>
