<svg width="30" height="30" viewBox="0 0 30 30" fill="none" xmlns="http://www.w3.org/2000/svg">
<path d="M28.6279 8.12932C28.3007 6.89755 27.3369 5.92745 26.1131 5.59823C23.8949 5 15 5 15 5C15 5 6.10522 5 3.88694 5.59823C2.66314 5.9275 1.69928 6.89755 1.37215 8.12932C0.777771 10.362 0.777771 15.0202 0.777771 15.0202C0.777771 15.0202 0.777771 19.6784 1.37215 21.9111C1.69928 23.1429 2.66314 24.0726 3.88694 24.4018C6.10522 25 15 25 15 25C15 25 23.8948 25 26.1131 24.4018C27.3369 24.0726 28.3007 23.1429 28.6279 21.9111C29.2222 19.6784 29.2222 15.0202 29.2222 15.0202C29.2222 15.0202 29.2222 10.362 28.6279 8.12932ZM12.0909 19.2495V10.7909L19.5252 15.0203L12.0909 19.2495Z" fill="white"/>
</svg>
